<?xml version="1.0" encoding="utf-8"?>
<!-- Generator: Adobe Illustrator 27.3.1, SVG Export Plug-In . SVG Version: 6.00 Build 0)  -->
<svg version="1.1" id="Layer_1" xmlns="http://www.w3.org/2000/svg" xmlns:xlink="http://www.w3.org/1999/xlink" x="0px" y="0px"
	 viewBox="0 0 128 128" style="enable-background:new 0 0 128 128;" xml:space="preserve">
<style type="text/css">
	.st0{fill:#010101;}
	.st1{fill:#9E1C20;}
	.st2{fill:#FFFFFF;}
</style>
<circle class="st0" cx="64" cy="64" r="64"/>
<g>
	<polygon class="st2" points="113,37.8 107.4,37.6 98,37.2 93.9,36.1 93.9,36.1 83.8,36.1 83.8,36.1 79.5,39.4 78.1,40.5 72.8,45.2 
		72.7,45.4 72.3,46.1 71.2,47.7 70.7,48.6 70.5,49 70.3,49.6 70.3,49.6 70.3,49.6 74.7,48.6 81.6,48.9 82.7,50.7 83.1,51.4 83,52.4 
		82.6,54.7 68.8,75.5 62.7,75.8 60.6,75.9 54.2,86.3 53.2,92.2 53.1,96.2 57.4,102.6 64.6,113.3 64.6,113.3 64.6,113.3 67.8,107.5 
		68.9,104.1 85.3,79.8 90.8,71.6 	"/>
	<path class="st2" d="M41.5,53.1c2-2.9,4.2-3.6,10.2-3.7c6-0.2,12.9-0.2,13.1-0.2c0,0,0,0,0,0h0l3.9-4.6l2-2.3l-5-7l0,0h-2.6l0,0
		c0,0-1,1.6-2.3,1.9c-0.6,0.1-1.3,0.2-2.1,0.2c-0.8,0-1.8,0-2.9-0.1c-0.3,0-0.6,0-1-0.1c-0.3,0-0.6,0-0.9-0.1c-0.1,0-0.3,0-0.4,0
		c-2.3-0.1-5.4-0.1-6.8-0.1c-0.1,0-0.2,0-0.2,0c-0.1,0-0.2,0-0.2,0l-19.8-0.2l0,0l0,0l-1,0.3l-2.6,0.6l-5.5,0.3L15,37.9
		c0,0,0.3,0.7,0.9,1.7c0.2,0.4,0.5,0.9,0.7,1.4c1.1,2.1,2.5,4.9,3.5,6.8c0,0.1,0.1,0.1,0.1,0.2c0.1,0.1,0.1,0.2,0.2,0.4
		c0.1,0.2,0.2,0.3,0.2,0.5c0.1,0.2,0.2,0.5,0.3,0.6c0.1,0.3,0.3,0.6,0.5,1c0.1,0.2,0.2,0.3,0.2,0.5c0.6,1.2,1.5,2.9,2.2,4.4
		c0.1,0.1,0.1,0.3,0.2,0.4c0.1,0.1,0.1,0.3,0.2,0.4c0.2,0.3,0.3,0.6,0.5,0.9c0.6,1.3,1.1,2.2,1.1,2.2l0.5,0.8l1.5,2.4l0,0v0l2-0.3
		l9.4-1.2C39.3,60.8,39.5,56,41.5,53.1z"/>
	<polygon class="st2" points="69.8,56.7 69.8,56.2 69.8,56.2 69.8,56.2 62.6,57.5 44.9,60.6 39.3,66.4 37.5,66.8 36.1,67.7 
		35.3,68.3 37.2,71.6 40.4,77.1 43.5,80.4 47.5,80.8 48,80.9 48.3,81 49.3,81.2 49.3,81.2 49.3,81.2 	"/>
</g>
</svg>
