<?xml version="1.0" encoding="utf-8"?>
<!-- Generator: Adobe Illustrator 27.3.1, SVG Export Plug-In . SVG Version: 6.00 Build 0)  -->
<svg version="1.1" id="Layer_1" xmlns="http://www.w3.org/2000/svg" xmlns:xlink="http://www.w3.org/1999/xlink" x="0px" y="0px"
	 viewBox="0 0 1200 1200" style="enable-background:new 0 0 1200 1200;" xml:space="preserve">
<style type="text/css">
	.st0{fill:#010101;}
	.st1{fill:#9E1C20;}
	.st2{fill:#FFFFFF;}
</style>
<circle class="st0" cx="600" cy="600" r="600"/>
<g>
	<polygon class="st2" points="1059.2,354.7 1006.7,352.6 919.1,349 879.9,338.4 879.9,338.4 785.4,338.4 785.4,338.4 745.6,369.2 
		732.3,379.5 682.5,423.9 681.2,425.9 677.5,431.9 667.8,447.6 662.9,455.5 661.3,459.1 658.7,465.2 658.7,465.2 658.7,465.2 
		700.7,455.5 764.5,458.9 775,475.5 779.2,482.2 777.9,490.8 774.7,512.5 645.3,708.3 587.5,711 568.3,711.9 507.7,808.6 
		499.1,864.3 497.9,901.9 538.4,961.9 605.9,1061.8 605.9,1061.8 605.9,1061.8 635.7,1008 645.9,976.1 800.1,747.7 851.5,671.6 	"/>
	<path class="st2" d="M388.9,497.8c18.9-26.8,39-33.5,95.8-35.1c55.9-1.6,120.9-1.6,122.9-1.6c0,0,0,0,0,0h0l36.8-43.4l18.4-21.7
		L616,330.2l0,0h-24.3l0,0c0,0-9.5,14.6-21.8,17.5c-5.4,1.3-12.1,1.8-20.1,1.8c-8,0-17.1-0.4-27.3-1.1c-2.9-0.2-5.9-0.4-8.9-0.7
		c-2.7-0.2-5.6-0.4-8.8-0.6c-1.3-0.1-2.7-0.1-4.1-0.2c-22-1-51.1-1.1-63.5-1.2c-0.8,0-1.5,0-2.2,0c-0.9,0-1.6,0-2.2,0l-185.4-2.2
		l0,0l0,0l-9.7,2.4l-24.3,5.9l-51.8,2.4l-20.7,0.9c0,0,3.2,6.2,8,15.7c2,3.9,4.3,8.4,6.7,13.2c10.2,20,23.5,46,32.5,63.5
		c0.3,0.6,0.6,1.2,0.9,1.8c0.6,1.2,1.2,2.3,1.7,3.4c0.8,1.6,1.6,3.1,2.3,4.5c1.2,2.3,2.2,4.3,3,5.8c1.3,2.5,3,5.7,4.9,9.6
		c0.7,1.4,1.5,3,2.3,4.6c6,11.7,13.7,27,20.8,40.9c0.6,1.3,1.3,2.5,1.9,3.8c0.6,1.2,1.2,2.5,1.9,3.7c1.5,3,3,5.9,4.4,8.6
		c6.1,11.9,10.4,20.4,10.4,20.4l4.7,7.4l14.1,22.2l0,0v0l18.8-3.1l87.9-11C368,569.9,370,524.6,388.9,497.8z"/>
	<polygon class="st2" points="654.6,531.3 654.6,527 654.6,527 654.6,527 586.6,538.8 421.3,568.2 368,622.2 351.5,626 338.7,635 
		331,640.5 349,671.5 379.2,723.3 407.4,753.9 444.9,757.8 449.9,758.3 453,759 462.3,761.2 462.3,761.2 462.3,761.2 	"/>
</g>
</svg>
