<?xml version="1.0" encoding="utf-8"?>
<!-- Generator: Adobe Illustrator 27.3.1, SVG Export Plug-In . SVG Version: 6.00 Build 0)  -->
<svg version="1.1" id="Layer_1" xmlns="http://www.w3.org/2000/svg" xmlns:xlink="http://www.w3.org/1999/xlink" x="0px" y="0px"
	 viewBox="0 0 512 512" style="enable-background:new 0 0 512 512;" xml:space="preserve">
<style type="text/css">
	.st0{fill:#010101;}
	.st1{fill:#9E1C20;}
	.st2{fill:#FFFFFF;}
</style>
<g>
	<circle class="st0" cx="256" cy="256" r="256"/>
	<g>
		<polygon class="st1" points="451.9,151.3 429.5,150.4 392.2,148.9 375.4,144.4 375.4,144.4 335.1,144.4 335.1,144.4 318.1,157.5 
			312.5,161.9 291.2,180.8 290.7,181.7 289.1,184.3 284.9,191 282.8,194.3 282.2,195.9 281,198.5 281,198.5 281,198.5 299,194.3 
			326.2,195.8 330.7,202.9 332.5,205.7 331.9,209.4 330.5,218.7 275.3,302.2 250.7,303.4 242.5,303.7 216.6,345 212.9,368.8 
			212.5,384.8 229.7,410.4 258.5,453 258.5,453 258.5,453 271.2,430.1 275.6,416.5 341.4,319 363.3,286.5 		"/>
		<path class="st1" d="M165.9,212.4c8.1-11.4,16.7-14.3,40.9-15c23.8-0.7,51.6-0.7,52.5-0.7c0,0,0,0,0,0h0l15.7-18.5l7.8-9.3
			l-20-28.1l0,0h-10.4l0,0c0,0-4.1,6.2-9.3,7.5c-2.3,0.5-5.2,0.8-8.6,0.8c-3.4,0-7.3-0.2-11.6-0.5c-1.2-0.1-2.5-0.2-3.8-0.3
			c-1.1-0.1-2.4-0.2-3.7-0.2c-0.6,0-1.2-0.1-1.8-0.1c-9.4-0.4-21.8-0.4-27.1-0.5c-0.3,0-0.7,0-0.9,0c-0.4,0-0.7,0-0.9,0l-79.1-1l0,0
			l0,0l-4.1,1L91,150.1l-22.1,1l-8.8,0.4c0,0,1.4,2.7,3.4,6.7c0.9,1.7,1.8,3.6,2.9,5.6c4.4,8.5,10,19.6,13.9,27.1
			c0.1,0.3,0.3,0.5,0.4,0.8c0.3,0.5,0.5,1,0.7,1.4c0.4,0.7,0.7,1.3,1,1.9c0.5,1,0.9,1.8,1.3,2.5c0.5,1.1,1.3,2.5,2.1,4.1
			c0.3,0.6,0.6,1.3,1,1.9c2.5,5,5.9,11.5,8.9,17.5c0.3,0.5,0.5,1.1,0.8,1.6c0.3,0.5,0.5,1.1,0.8,1.6c0.7,1.3,1.3,2.5,1.9,3.7
			c2.6,5.1,4.4,8.7,4.4,8.7l2,3.2l6,9.5l0,0v0l8-1.3l37.5-4.7C157,243.2,157.9,223.8,165.9,212.4z"/>
		<polygon class="st1" points="279.3,226.7 279.3,224.8 279.3,224.8 279.3,224.8 250.3,229.9 179.7,242.4 157,265.5 150,267.1 
			144.5,270.9 141.2,273.3 148.9,286.5 161.8,308.6 173.8,321.7 189.8,323.3 192,323.5 193.3,323.8 197.3,324.8 197.3,324.8 
			197.3,324.8 		"/>
	</g>
</g>
</svg>
