<?xml version="1.0" encoding="utf-8"?>
<!-- Generator: Adobe Illustrator 27.3.1, SVG Export Plug-In . SVG Version: 6.00 Build 0)  -->
<svg version="1.1" id="Layer_1" xmlns="http://www.w3.org/2000/svg" xmlns:xlink="http://www.w3.org/1999/xlink" x="0px" y="0px"
	 viewBox="0 0 64 64" style="enable-background:new 0 0 64 64;" xml:space="preserve">
<style type="text/css">
	.st0{fill:#010101;}
	.st1{fill:#9E1C20;}
	.st2{fill:#FFFFFF;}
</style>
<g>
	<circle class="st0" cx="32" cy="32" r="32"/>
	<g>
		<polygon class="st1" points="56.5,18.9 53.7,18.8 49,18.6 46.9,18 46.9,18 41.9,18 41.9,18 39.8,19.7 39.1,20.2 36.4,22.6 
			36.3,22.7 36.1,23 35.6,23.9 35.4,24.3 35.3,24.5 35.1,24.8 35.1,24.8 35.1,24.8 37.4,24.3 40.8,24.5 41.3,25.4 41.6,25.7 
			41.5,26.2 41.3,27.3 34.4,37.8 31.3,37.9 30.3,38 27.1,43.1 26.6,46.1 26.6,48.1 28.7,51.3 32.3,56.6 32.3,56.6 32.3,56.6 
			33.9,53.8 34.4,52.1 42.7,39.9 45.4,35.8 		"/>
		<path class="st1" d="M20.7,26.5c1-1.4,2.1-1.8,5.1-1.9c3-0.1,6.4-0.1,6.6-0.1c0,0,0,0,0,0h0l2-2.3l1-1.2l-2.5-3.5l0,0h-1.3l0,0
			c0,0-0.5,0.8-1.2,0.9c-0.3,0.1-0.6,0.1-1.1,0.1c-0.4,0-0.9,0-1.5-0.1c-0.2,0-0.3,0-0.5,0c-0.1,0-0.3,0-0.5,0c-0.1,0-0.1,0-0.2,0
			c-1.2-0.1-2.7-0.1-3.4-0.1c0,0-0.1,0-0.1,0c0,0-0.1,0-0.1,0l-9.9-0.1l0,0l0,0l-0.5,0.1l-1.3,0.3l-2.8,0.1l-1.1,0.1
			c0,0,0.2,0.3,0.4,0.8C8,20,8.2,20.2,8.3,20.5c0.5,1.1,1.3,2.5,1.7,3.4c0,0,0,0.1,0,0.1c0,0.1,0.1,0.1,0.1,0.2
			c0,0.1,0.1,0.2,0.1,0.2c0.1,0.1,0.1,0.2,0.2,0.3c0.1,0.1,0.2,0.3,0.3,0.5c0,0.1,0.1,0.2,0.1,0.2c0.3,0.6,0.7,1.4,1.1,2.2
			c0,0.1,0.1,0.1,0.1,0.2c0,0.1,0.1,0.1,0.1,0.2c0.1,0.2,0.2,0.3,0.2,0.5c0.3,0.6,0.6,1.1,0.6,1.1l0.3,0.4l0.8,1.2l0,0v0l1-0.2
			l4.7-0.6C19.6,30.4,19.7,28,20.7,26.5z"/>
		<polygon class="st1" points="34.9,28.3 34.9,28.1 34.9,28.1 34.9,28.1 31.3,28.7 22.5,30.3 19.6,33.2 18.7,33.4 18.1,33.9 
			17.7,34.2 18.6,35.8 20.2,38.6 21.7,40.2 23.7,40.4 24,40.4 24.2,40.5 24.7,40.6 24.7,40.6 24.7,40.6 		"/>
	</g>
</g>
</svg>
